#!OML:ASF H:\Terrain\Patient Classification 1\Walking\liu\liu.ASF
:FULLY-SPECIFIED
:DEGREES
66
root 8.47943 16.3081 -21.4297 7.62031 0.66917 4.22344
lowerback -3.80251 -2.48823 -5.18252
upperback -1.04056 -3.14253 1.67455
thorax 1.43051 -1.59024 4.47145
lowerneck -25.5984 -1.24201 -10.6432
upperneck 24.6309 0.702421 6.10769
head 12.3413 0.133122 4.24639
rclavicle 5.22804e-014 -6.36111e-015
rhumerus -42.7627 10.0884 -85.5276
rradius 30.0041
rwrist -11.9332
rhand -33.9763 -21.3459
rfingers 7.12502
rthumb -7.15669 -51.2049
lclavicle 5.22804e-014 -6.36111e-015
lhumerus -29.1747 -19.2828 92.0503
lradius 31.1556
lwrist 9.99936
lhand -11.2661 -24.8633
lfingers 7.12502
lthumb 14.7641 4.59082
rfemur -41.4065 -0.756474 17.865
rtibia 44.8082
rfoot -19.3935 -6.13042
rtoes -19.065
lfemur -0.306398 0.302641 -31.2008
ltibia 13.1264
lfoot -17.3968 5.34322
ltoes -0.250841
67
root 8.47582 16.2967 -21.1535 7.81291 1.05031 4.26026
lowerback -4.03389 -2.68246 -5.23984
upperback -1.02286 -3.38659 1.64753
thorax 1.60837 -1.71766 4.44883
lowerneck -25.7219 -1.1651 -10.2627
upperneck 24.6017 0.713125 5.96849
head 12.3537 0.1571 4.13132
rclavicle -9.44227e-016 -1.59028e-015
rhumerus -43.0314 9.07857 -84.8566
rradius 28.9714
rwrist -11.833
rhand -33.7563 -22.5181
rfingers 7.12502
rthumb -6.94437 -52.3842
lclavicle -9.44227e-016 -1.59028e-015
lhumerus -28.576 -20.613 91.9855
lradius 31.9018
lwrist 7.95775
lhand -16.4223 -25.8314
lfingers 7.12502
lthumb 9.79269 3.92091
rfemur -42.1314 -0.370751 17.5974
rtibia 42.1298
rfoot -19.5184 -5.68849
rtoes -16.3354
lfemur 1.88271 0.359012 -31.1998
ltibia 10.515
lfoot -16.736 5.34726
ltoes -2.00262
68
root 8.46997 16.2785 -20.8804 7.98794 1.37415 4.67015
lowerback -4.20599 -2.88693 -5.67039
upperback -1.01541 -3.62854 1.48897
thorax 1.7566 -1.84426 4.50067
lowerneck -25.8824 -1.05077 -10.0831
upperneck 24.606 0.790595 6.06666
head 12.3771 0.223846 4.15598
rclavicle 3.47873e-014 -4.77083e-015
rhumerus -43.6195 8.46231 -84.5389
rradius 28.1905
rwrist -12.8314
rhand -32.7273 -23.6256
rfingers 7.12502
rthumb -5.95097 -53.522
lclavicle 3.47873e-014 -4.77083e-015
lhumerus -27.1882 -20.3551 90.9345
lradius 33.179
lwrist 9.39846
lhand -14.9113 -25.6492
lfingers 7.12502
lthumb 11.2503 4.02909
rfemur -42.8647 0.0640148 16.8851
rtibia 39.5416
rfoot -19.9382 -5.46174
rtoes -16.5683
lfemur 4.56317 0.482748 -31.5594
ltibia 7.07757
lfoot -15.6605 5.24634
ltoes -3.72563
69
root 8.46338 16.2527 -20.606 8.07472 1.71119 5.08609
lowerback -4.23887 -3.05395 -6.11768
upperback -1.05445 -3.82855 1.38158
thorax 1.78018 -1.9457 4.62494
lowerneck -25.8435 -0.971301 -10.1012
upperneck 24.6603 0.87944 6.15411
head 12.3808 0.272084 4.20986
rclavicle -2.67862e-014 1.66979e-014
rhumerus -44.4323 7.66254 -83.8902
rradius 27.7114
rwrist -13.4384
rhand -30.3385 -23.6954
rfingers 7.12502
rthumb -3.64436 -53.644
lclavicle -2.67862e-014 1.66979e-014
lhumerus -25.6412 -19.4276 89.7727
lradius 34.6713
lwrist 12.2538
lhand -10.3227 -24.6274
lfingers 7.12502
lthumb 15.6729 4.75786
rfemur -43.4985 0.753571 16.0313
rtibia 37.126
rfoot -20.4734 -5.74586
rtoes -17.892
lfemur 9.21946 0.608037 -31.8895
ltibia -9.54166e-015
lfoot -12.5911 5.13988
ltoes -4.47641
70
root 8.45654 16.2245 -20.3273 8.04197 2.08795 5.09517
lowerback -4.147 -3.14385 -6.18638
upperback -1.09413 -3.95297 1.41827
thorax 1.71059 -2.00526 4.6986
lowerneck -25.4504 -0.889482 -10.2782
upperneck 24.4551 0.954767 6.38856
head 12.2126 0.324798 4.32824
rclavicle 9.49197e-015 -6.36111e-015
rhumerus -44.9387 5.85971 -82.2819
rradius 27.2167
rwrist -11.7466
rhand -29.8404 -24.8812
rfingers 7.12502
rthumb -3.16331 -54.8375
lclavicle 9.49197e-015 -6.36111e-015
lhumerus -24.6761 -19.781 89.3699
lradius 36.1903
lwrist 13.2577
lhand -10.1555 -22.5783
lfingers 7.12502
lthumb 15.8339 6.79421
rfemur -43.928 1.65786 15.5005
rtibia 34.9438
rfoot -20.876 -6.30895
rtoes -17.6646
lfemur 10.2871 0.759186 -31.6895
ltibia -2.54444e-014
lfoot -12.8483 4.66033
ltoes -3.55885
71
root 8.44765 16.1975 -20.0482 7.90061 2.56453 5.24773
lowerback -3.98593 -3.28353 -6.45568
upperback -0.991589 -4.13507 1.35265
thorax 1.76405 -2.10173 4.77329
lowerneck -25.3104 -0.857839 -10.0561
upperneck 24.16 0.901088 6.37852
head 12.0758 0.328321 4.26387
rclavicle 3.44394e-014 -1.66979e-014
rhumerus -45.865 5.04194 -81.5717
rradius 27.6742
rwrist -11.8919
rhand -32.541 -25.1446
rfingers 7.12502
rthumb -5.77109 -55.046
lclavicle 3.44394e-014 -1.66979e-014
lhumerus -23.711 -20.6957 88.9977
lradius 36.0948
lwrist 11.9148
lhand -14.2048 -25.1882
lfingers 7.12502
lthumb 11.9316 4.45176
rfemur -44.2057 2.70267 14.6291
rtibia 33.0209
rfoot -21.4171 -7.22445
rtoes -18.7607
lfemur 11.4978 0.807818 -31.5629
ltibia 1.90833e-014
lfoot -13.0043 3.98394
ltoes -2.51296
72
root 8.43576 16.1763 -19.7677 7.81743 2.98387 5.6793
lowerback -3.96075 -3.43359 -7.07562
upperback -0.780749 -4.30398 1.26868
thorax 2.02979 -2.20418 5.01416
lowerneck -25.6415 -0.9712 -9.91589
upperneck 23.9953 0.768108 6.22647
head 12.0905 0.268162 4.15879
rclavicle 4.9895e-014 1.59028e-015
rhumerus -47.1894 5.27855 -81.4896
rradius 29.3228
rwrist -13.4743
rhand -35.5926 -28.2975
rfingers 7.12502
rthumb -8.71662 -58.0975
lclavicle 4.9895e-014 1.59028e-015
lhumerus -21.8627 -19.5839 87.9628
lradius 36.5729
lwrist 13.4668
lhand -12.0175 -26.9957
lfingers 7.12502
lthumb 14.0401 2.51005
rfemur -44.588 3.95028 13.2365
rtibia 31.3777
rfoot -22.2905 -8.0829
rtoes -21.1922
lfemur 12.6715 0.861013 -31.7119
ltibia 1.27222e-014
lfoot -13.0823 3.3334
ltoes -1.99448
73
root 8.42056 16.1533 -19.483 7.79188 3.38702 6.00938
lowerback -3.93951 -3.65316 -7.69445
upperback -0.693429 -4.57235 1.3889
thorax 2.20476 -2.35295 5.46254
lowerneck -25.8915 -0.990713 -10.1781
upperneck 23.992 0.870684 6.24157
head 12.1263 0.293093 4.22976
rclavicle 2.68359e-015 7.95139e-015
rhumerus -47.9073 5.2503 -80.8592
rradius 29.7793
rwrist -13.9952
rhand -37.2219 -34.0168
rfingers 7.12502
rthumb -10.2887 -63.7451
lclavicle 2.68359e-015 7.95139e-015
lhumerus -20.6532 -19.1045 87.6625
lradius 37.1201
lwrist 13.282
lhand -13.5411 -26.9539
lfingers 7.12502
lthumb 12.5716 2.64786
rfemur -45.0142 5.3461 11.842
rtibia 30.003
rfoot -23.3536 -8.52034
rtoes -21.0003
lfemur 13.7943 0.923763 -31.7348
ltibia -1.90833e-014
lfoot -13.1054 2.6921
ltoes -2.50824
74
root 8.4075 16.1214 -19.1919 7.83259 3.90201 6.1939
lowerback -3.91029 -3.95172 -8.09913
upperback -0.774848 -4.96137 1.51742
thorax 2.20888 -2.54926 5.79558
lowerneck -25.9927 -0.926192 -10.367
upperneck 24.1972 1.02217 6.32987
head 12.2091 0.349627 4.33106
rclavicle 1.68967e-015 9.54166e-015
rhumerus -48.073 4.39065 -79.6506
rradius 28.6254
rwrist -13.4246
rhand -36.9098 -34.3592
rfingers 7.12502
rthumb -9.98761 -64.1022
lclavicle 1.68967e-015 9.54166e-015
lhumerus -19.8999 -19.0742 87.4006
lradius 37.8441
lwrist 13.4888
lhand -15.4176 -26.5759
lfingers 7.12502
lthumb 10.762 3.12846
rfemur -45.4079 7.04272 10.3867
rtibia 28.8114
rfoot -24.3833 -9.531
rtoes -18.8963
lfemur 14.8776 0.874344 -31.5751
ltibia 6.36111e-014
lfoot -13.021 2.01232
ltoes -4.95221
75
root 8.39893 16.0817 -18.8996 7.96985 4.29303 6.49497
lowerback -4.08091 -4.05889 -8.43931
upperback -0.803993 -5.07371 1.43959
thorax 2.3144 -2.61058 5.88356
lowerneck -25.8356 -1.04508 -10.7505
upperneck 24.1317 0.862624 6.76687
head 12.164 0.303619 4.533
rclavicle -5.46658e-014 -1.66979e-014
rhumerus -48.1312 2.42421 -77.9169
rradius 27.1573
rwrist -12.4466
rhand -35.5885 -30.6764
rfingers 7.12502
rthumb -8.71268 -60.4766
lclavicle -5.46658e-014 -1.66979e-014
lhumerus -18.887 -19.1753 86.9851
lradius 38.4439
lwrist 14.2482
lhand -16.0672 -26.683
lfingers 7.12502
lthumb 10.1354 3.05285
rfemur -45.893 8.42756 8.99721
rtibia 27.7505
rfoot -25.0052 -10.8828
rtoes -18.7705
lfemur 15.8466 0.903292 -31.5228
ltibia -3.18055e-014
lfoot -12.8266 1.15892
ltoes -7.20124
76
root 8.38979 16.041 -18.6069 8.2144 4.4758 6.72873
lowerback -4.47408 -4.04539 -8.72134
upperback -0.758377 -5.00353 1.3986
thorax 2.59114 -2.59038 5.97564
lowerneck -25.499 -1.22211 -11.2983
upperneck 23.7176 0.677291 7.18028
head 11.9536 0.235781 4.73063
rclavicle 1.95803e-014 3.57812e-014
rhumerus -48.2845 0.573427 -76.306
rradius 26.0872
rwrist -11.3039
rhand -35.1912 -28.9534
rfingers 7.12502
rthumb -8.32926 -58.7692
lclavicle 1.95803e-014 3.57812e-014
lhumerus -17.5378 -18.9129 86.6708
lradius 38.625
lwrist 14.5469
lhand -17.0171 -26.8809
lfingers 7.12502
lthumb 9.21882 2.89759
rfemur -46.4657 8.72637 8.50207
rtibia 26.9477
rfoot -24.8591 -11.2567
rtoes -20.1377
lfemur 16.671 1.10684 -31.3794
ltibia -6.36111e-015
lfoot -12.4008 0.114936
ltoes -7.5315
77
root 8.38372 16.008 -18.3134 8.42452 4.59821 6.83129
lowerback -4.79156 -4.18255 -8.96756
upperback -0.741806 -5.14652 1.52702
thorax 2.8447 -2.67669 6.21125
lowerneck -25.3622 -1.24224 -11.625
upperneck 23.4438 0.778625 7.13925
head 11.8106 0.252417 4.77128
rclavicle 5.20816e-014 1.90833e-014
rhumerus -48.4867 0.0698207 -75.4298
rradius 25.448
rwrist -10.5514
rhand -34.4936 -27.9087
rfingers 7.12502
rthumb -7.65606 -57.7501
lclavicle 5.20816e-014 1.90833e-014
lhumerus -16.377 -17.7238 86.428
lradius 38.7004
lwrist 14.2791
lhand -18.2222 -27.1405
lfingers 7.12502
lthumb 8.05589 2.68592
rfemur -46.8971 8.42627 8.6785
rtibia 26.5521
rfoot -24.4388 -10.7527
rtoes -21.0301
lfemur 17.5477 1.37335 -31.0407
ltibia 1.59028e-014
lfoot -11.7017 -1.15775
ltoes -4.73847
78
root 8.38094 15.9732 -18.0219 8.22021 4.71363 7.13717
lowerback -4.523 -4.30281 -9.3693
upperback -0.718975 -5.31259 1.53918
thorax 2.78511 -2.76277 6.44987
lowerneck -25.5028 -1.19215 -11.5393
upperneck 23.6028 0.943975 6.75033
head 11.8854 0.277309 4.64256
rclavicle -8.51295e-014 -1.11319e-014
rhumerus -48.7142 -0.557228 -74.4184
rradius 24.8704
rwrist -9.44588
rhand -33.3102 -25.9749
rfingers 7.12502
rthumb -6.51364 -55.8547
lclavicle -8.51295e-014 -1.11319e-014
lhumerus -15.6931 -16.2445 86.2791
lradius 39.0339
lwrist 14.0147
lhand -18.8736 -26.9525
lfingers 7.12502
lthumb 7.42717 2.89715
rfemur -46.7671 7.78407 8.94981
rtibia 26.5518
rfoot -24.1085 -9.35101
rtoes -20.0335
lfemur 18.8823 1.68957 -30.88
ltibia -3.81667e-014
lfoot -10.7468 -2.4464
ltoes -1.06328
79
root 8.3764 15.9318 -17.7266 7.90987 4.88557 7.27332
lowerback -4.07616 -4.34279 -9.5067
upperback -0.735355 -5.40497 1.50729
thorax 2.54371 -2.79893 6.51753
lowerneck -25.7544 -1.07512 -11.1434
upperneck 23.949 1.10504 6.3193
head 12.057 0.317448 4.45509
rclavicle 2.4202e-014 -1.03368e-014
rhumerus -49.1455 -1.53191 -73.2816
rradius 24.375
rwrist -8.03479
rhand -32.8233 -24.3483
rfingers 7.12502
rthumb -6.04362 -54.2421
lclavicle 2.4202e-014 -1.03368e-014
lhumerus -15.3858 -15.0461 86.1616
lradius 39.6144
lwrist 13.9449
lhand -19.1353 -26.5896
lfingers 7.12502
lthumb 7.17457 3.26879
rfemur -46.4455 6.92645 9.5761
rtibia 26.906
rfoot -23.7619 -7.45065
rtoes -17.9301
lfemur 20.3001 1.98604 -30.561
ltibia -1.90833e-014
lfoot -9.57783 -3.41844
ltoes 0.443974
